<?xml version="1.0" encoding="UTF-8"?>
<svg id="Layer_1" data-name="Layer 1" xmlns="http://www.w3.org/2000/svg" viewBox="0 0 193.17 164.43">
  <defs>
    <style>
      .cls-1 {
        font-family: ComicSansMS-Bold, 'Comic Sans MS';
        font-weight: 700;
      }

      .cls-2 {
        letter-spacing: -.02em;
      }

      .cls-2, .cls-3 {
        font-family: KozGoPr6N-Regular-90ms-RKSJ-H, 'Kozuka Gothic Pr6N';
      }

      .cls-4 {
        font-size: 17.68px;
      }

      .cls-3 {
        letter-spacing: -.48em;
      }

      .cls-5 {
        font-family: MyriadPro-Regular, 'Myriad Pro';
      }
    </style>
  </defs>
  <g>
    <path d="M111.04,126.52c-2.62,6-8.14,8.88-13.79,9.02-6.63.17-11.08-3.33-14.74-8.74-1.55-2.29-5.79-3.14-6.26-7.31-2.09,1.34-2.06,2.89-1.77,5.02.79,5.74-3.54,10.5-9.19,11.49-2.59,3.5-6.24,5.39-10.35,5.24-4.07-.14-7.63-2.72-9.99-6.43-6.8-1.21-11.12-6.7-10.56-13.64-4.16-1.75-6.32-5.22-7.49-8.48-1.6-4.46.58-8.16,2.64-11.92-1.23-3.22-3.46-7.35-1.34-11.58,1.52-3.01,4.44-5.91,8.84-6.54-2.15-9.44,3.92-16.97,12.7-19.34-2.66-3.37-3.01-6.61-2.38-10.14.57-3.15,3.62-5.79,6.15-7.67-.74-4.19-.8-8.08,1.85-11.52,2.44-3.18,6.41-4.31,10.66-4.79,1.44-3.24,3.59-6.87,6.53-8.52,3.85-2.17,8.13-1.31,11.82-.32,3.54-2.87,7.28-6.1,12.31-6.08s9.34,2.43,12.74,6.28c3.68-1.6,7.64-1.71,11.39-.14s5.12,5.57,7.15,8.62c3.6,1.01,7.86,1.43,10.26,4.54,2.73,3.53,2.97,7.53,2.09,11.93,2.61,1.89,5.56,4.54,6.16,7.59.76,3.85-.1,7.13-2.16,10.33,9.11,2.45,14.54,10.15,12.49,19.18,4.19.66,7.15,3.28,8.65,6.08,2.35,4.38.34,8.45-1.06,11.92,1.61,3.5,4.07,7.14,2.76,11.75-.97,3.41-3.77,6.89-7.42,8.9.15,7.18-4.2,11.53-10.66,14.17-3.03,1.28-5.4,6.73-9.85,5.59-4.1.86-8.01-1.71-10.67-5.08-5.62-.94-9.74-5.47-9.14-11.16.49-1.88.27-3.66-1.48-5.04-1.6,2.99-3.48,5.45-6.89,6.79ZM91.72,52.34c.59-.27,1.62.59,1.75.95s.04,1.24-.5,1.52c-4.7,2.47-6.4,8.01-3.66,12.75,2.16,3.72,6.43,5.42,10.74,4.64,7.92-1.44,7.47-8.81,9.26-9.08,2.46-.37.7,4.49,5.16,5.77s5.51-2.92,7.35-2.56c.75.15.94.76.93,1.25-.04,1.79-2.15,2.28-1.98,3.56.29,2.24,6.68,6.12,11.42,2.11,2.71-2.3,3.68-6.4.78-9.86-1.36,1.1-2.65,2.32-4.58,2.44-1.05.06-1.75-.43-1.78-1.33-.07-1.91,3.28-1.27,4.18-3.79,1.08-3.04-3.06-5.02.26-6.5,3.69,1.74,1.53,5.81,6.2,10.02,3.93-.85,6.27-4.11,6.48-7.62s-1.47-6.98-5.11-8.23l-2.45,1.52c-.84.52-1.37-.76-1.45-1.3-.22-1.49,5.9-5.72,1.84-12.14-1.71-2.71-5.12-4.52-8.82-3.84-.5,3.68-1.06,6.72-3.12,6.38-2.25-.36.16-3.26.08-7.35s-2.47-7.36-5.8-8.73c-3.54-1.46-7.21-.57-10.41,1.88-2.94-5.41-8.33-8.46-14.11-7.21-5.32,1.15-9.29,5.78-9.65,11.55-.05.82-1.05.97-1.47.97-2.13,0-1.56-2.78-.2-6.69-3.15-1.71-6.64-1.59-9.71.41-5.58,3.63-3.03,10.07-6.09,9.13s-6.4-.24-8.59,1.85c-2.3,2.2-3.39,5.45-2.35,8.65,1.49,4.54,5.87,4.19,5.07,6.24-.33.84-1.47,1.27-2.36.75l-3.86-2.25c-3.64,1.65-5.55,5.13-5.03,8.93.44,3.21,2.98,6.5,6.63,7.11l2.88-3.79c.18-2.32.52-4.52,2.64-6.1.81-.61,2.62,1.11,1.95,1.95-1.14,1.43-1.88,2.71-1.28,4.4.83,2.33,4.24,2.05,4.47,3.8.05.37-.63.96-1.07,1.14-1.98.79-3.78-1.01-5.21-1.89-2.47,1.28-2.61,5.23-1.09,7.46,1.71,2.91,4.52,4.27,8.04,3.61,1.89-.22,6.02-2.89,5.51-5.54-1.67-3.12-3.44-5.85-2.24-9.78.74-2.44,2.73-5.28,5.84-6.37,1.06-.37,2.36.18,2.35,1.11s-.7,1.44-1.67,1.86c-4.16,1.8-5.14,6.85-2.39,10.27,2.39,2.97,7.04,3.89,10.29.89-2.08-5.94.15-12.29,5.9-14.91ZM60.85,135.94c-6.81-1.83-10.8-7.78-9.23-14.12,1.31-5.31,6.8-8.25,11.64-5.8,2.45,1.24,3.49,3.95,3.17,6.5-.29,2.29-2.08,4.4-4.76,4.89-.93.17-1.71-.64-1.95-1.52-.35-1.27,3.95-1.31,3.82-4.46-.05-1.18-.76-2.55-2.2-3.08-2.86-1.05-5.68.78-6.66,3.65-1.04,3.03-.12,6.15,1.86,8.26s5.09,3.25,8.26,2.75c2.81-.45,4.82-1.97,5.99-3.92,1.37-2.28.47-5.15-.09-7.4,5.52-6.21,3.04-14.46-1.62-21.73-3.7-5.77-5.77-11.72-5.97-19.29-5.71,3.85-6.53,11.11-2.96,16.54,1.13,2.94,1.45,5.83-.19,8.95-1.02,1.64-3.59,4.36-6.21,4.15-1.07-.08-1.22-2.54-.23-2.82,2.18-.62,3.61-1.96,4.22-3.66s.54-3.64-.43-5.42c-4.47-8.25-2.27-15.36,4.91-21.39-4.48-1.84-5.18-5.64-6.43-9.1-1.06-2.93-5.35-1.79-7.39-1.01-7.19,2.74-10.7,9.87-7.63,16.9,1.31,3-6.08.13-9.32,5.75-1.44,2.5-1.85,6.91.96,8.64,4.68-.05,3.4-6.36,5.93-5.8s1.2,6.12-4.16,8.91c-3.23,1.68-4.89,5.19-4.67,8.57.21,3.19,1.9,6.3,5.22,8.07,1.4-5.86,4.85-9.84,9.8-12.25-1.12-2.81-1.27-5.4.14-7.94,1.85-3.33,6.32-4.89,7.23-2.97,1.12,2.36-4.01,1.57-4.98,5.26-1.09,4.14,2.91,7.22.98,7.73-5.95,1.55-9.61,6.09-10.44,12.2-.62,4.59.82,9.43,5.94,11.23-.93-5.87,1.29-12.3,3.79-11.5.5.16,1.35,1.04.84,1.8-3.34,5-2.29,11.92,2.89,15.32,3.01,1.97,7.25,2.21,9.94-.88ZM132.86,136.03c3.87,3.46,8.74,2.56,11.76-.51,3.93-3.99,4.01-9.89,1.02-14.45-.44-.68.92-1.46,1.4-1.43,2.73.13,4.1,6.09,3.53,11.46,4.79-1.56,6.51-6.07,5.98-10.61-1.36-11.8-11.07-11.92-11.07-13.68,0-1.42,2.58-3.06,1.46-6.84-1.05-3.55-5.64-2.7-5.03-5.1.52-2.07,5.76-.64,7.61,3.53,1.11,2.49.92,4.78-.17,7.45,5.29,2.2,8.22,6.41,9.85,11.95,3.42-1.54,5.23-5.07,5.21-8.49-.04-8.73-9.31-7.75-9.93-14.81-.11-1.22.34-2.09,1.42-2.08,2.12.02,1,5.51,5.57,5.88,2.99-2.28,2.39-6.75.61-9.31s-5.07-3.74-8.44-3.32c-.97-1.83.11-3.5.38-5.15,1.07-6.48-3.07-11.6-9.04-13.84-1.91-.72-6.04-1.4-6.94,1.27-1.19,3.5-1.87,7.26-6.39,9.07,7.26,5.45,9.23,14.2,4.72,21.8-1.93,3.25.14,7.5,3.37,8.42,1.4.4,1.55,1.77.84,2.74-.51.7-1.35.44-2.4-.05-4.73-2.17-7.11-7.79-4.35-12.62,3.32-5.8,2.56-12.77-3.27-17.21.26,7.46-1.67,13.39-5.34,19.11-4.84,7.54-7.83,15.99-2.09,22.43-.62,2.35-1.45,5.33.09,7.64,2.22,3.31,6.21,4.57,10.11,3.43,3.2-.93,6.18-3.93,6.26-7.95.07-3.31-1.93-6.44-5.15-6.76-2.07-.2-3.7,1.27-4.01,2.78-.81,3.91,4.66,3.61,3.58,5.73-.27.53-1.15.99-1.89.85-2.63-.48-4.46-2.65-4.71-4.86-.28-2.45.57-4.92,2.81-6.26,4.46-2.67,9.95-.32,11.7,4.62,2.43,6.85-2.08,13.46-9.06,15.15ZM90.82,103.83c3.95-1.72,8.65-1.62,12.31.05,2.59,1.19,3.61,3.61,3.22,6.25-.17,1.14-.7,1.89-1.55,2.2-1.62.59-3.31-2.24-4.46-.6-.32.46-.37,1.54.28,2.03,1.16.88,2.63.62,3.92.32-1.25,3.89-6.19,3.69-6.24,5.49-.07,2.88,5.84,6.4,11.6,4.18,3.43-1.32,5.94-4.95,6.13-9.36.47-10.65-9.77-17.37-8.86-27.85.35-4.1,2.12-8.2,5.87-9.61,3.32-1.25,6.66.53,7.85,3.38s0,5.98-2.53,7.49c-2.78,1.66-5.77.65-8.04-1.72-1.04,7.39,4.74,13.5,7.66,20.38,4.97-10.2,10.85-16.52,9.55-28.48-4.74.16-7.39-2.72-9.97-5.64-2.26-.62-6.08-.33-8.04-3.45-2.7,4.27-6.62,6.26-11.14,6.41-4.28.14-8.16-1.57-11.1-5.42-2.95,2.92-7.34,1.9-10.41,1.42-2.52,3.23-5.3,7.03-10.62,6.61-.52,7.17,1,13.59,4.72,19.38,1.9,2.97,3.22,5.85,4.91,9.54,2.5-7.06,8.66-12.92,7.65-20.65-2.61,2.5-5.87,3.22-8.51,1.35s-3.35-5.28-1.76-8.02,5.14-3.82,8.26-2.24c3.36,1.7,4.91,5.71,5.16,9.57.68,10.25-9.32,17.11-8.89,27.54.18,4.41,2.75,7.94,6.14,9.3,3.91,1.57,8.02.8,10.86-2.23,3.26-3.47-4.16-3.03-5.56-7.48,1.37.56,3.34.73,4.19-.64.5-.8.04-1.79-.48-2.04-1.09-.51-3.8,2.68-5.07.06s-.25-6.15,2.94-7.53ZM106.72,127.84c-4.44-.98-7.17-1.5-9.8-4.24-2.75,2.92-6,3.56-10.06,4.1,5.06,6.47,15.22,6.55,19.86.14Z"/>
    <path d="M117.15,45.39c-6.53.61-5.71,8.31-7.85,8.3-2.96-.02,1.08-5.91-4.09-8.49-4.9-2.44-6.69,3.62-8.69,2.05s2.42-5.78,6.64-5.58c2.88.14,5.28,1.57,7.12,4.47,2.91-3.56,7.08-4.68,11.36-2.89,3.23,1.35,5.78,5.07,5.15,9.47-.96,6.68-9.12,8.97-10.18,6.67-.27-.59.22-1.98,1.19-2.01,3.7-.12,6.2-2.69,6.11-6.23-.08-3.16-2.77-6.13-6.76-5.76Z"/>
    <path d="M83.05,49.18c-3.05-1.07-3.08-4.12-4.62-6.08-1.38-1.75-4.9-.12-6.05,1.18-3.15,3.53-.31,7.1-.81,8.28-.22.52-1.85.96-2.29.38-2.28-2.96-1.58-6.91.17-9.73,2.14-3.46,5.96-3.56,9.69-3.98,1.48-1.97,3.35-4.75,6.04-5.26,5.28-1,9.47,2.75,8.13,4.5-1.7,2.21-5.42-4.68-9.86-.08-2.41,2.5-2.03,6.15.81,8.16.66.47.91,1.35.71,1.85-.28.69-1.21,1.04-1.92.78Z"/>
    <path d="M112.23,37.88c-2.17.23-1.31-3.61-4.25-4.65-3.44-1.21-4.95,2.56-6.72,1.49-.37-.22-.8-1.14-.38-1.8,1.66-2.58,4.89-3.47,7.85-2.59,2.5.74,4.76,3.34,4.79,6.34,0,.74-.88,1.16-1.29,1.2Z"/>
    <path d="M96.29,65.61c-1.07-.1-1.2-1.21-1.13-1.69.12-.79.73-1.25,1.8-1.25,4.4-.03,3.62-4.76,5.12-5.52.57-.29,1.65-.1,1.77.68.69,4.27-3.04,8.21-7.57,7.79Z"/>
    <path d="M52.93,77.14c-7.45,3.92-3.73,10.88-4.56,11.99-.32.43-1.6,1.26-2.1.32-2.95-5.53-.27-12.22,5.29-14.83.72-.34,1.64.09,1.9.54s.3,1.55-.53,1.99Z"/>
    <path d="M66.09,104.71c3.49,3.09,3.68,9.44.9,8.91-2.18-.41.05-3.66-2.88-6.91-.49-.54-.4-1.35-.09-1.79.33-.48,1.38-.82,2.08-.21Z"/>
    <path d="M145.13,88.64c3.18-9.44-5.35-10.9-4.92-13.09.16-.82,1.08-1.32,1.98-.94,6,2.52,8.16,9.69,5.29,15.23-.34.42-2.6-.49-2.36-1.21Z"/>
    <path d="M129.71,106.77c-2.87,3.36-.71,6.47-2.92,6.87-2.68.48-2.55-5.71.9-8.91.57-.52,1.42-.38,1.78-.14.53.36.83,1.48.23,2.18Z"/>
  </g>
  <text class="cls-4" transform="translate(46.65 158.44)"><tspan class="cls-2" x="0" y="0">『</tspan><tspan class="cls-1" x="17.33" y="0">Ma</tspan><tspan class="cls-3" x="42.41" y="0">』</tspan><tspan class="cls-5" x="51.61" y="0"> </tspan><tspan class="cls-2" x="46.87" y="0">『</tspan><tspan class="cls-1" x="64.2" y="0">Lv</tspan><tspan class="cls-3" x="82.18" y="0">』</tspan></text>
</svg>